<?xml version="1.0"?>
<svg xmlns="http://www.w3.org/2000/svg" width="1254" height="1254" viewBox="0 0 1254 1254" role="img" aria-label="Dark counterclockwise spiral on warm beige background">
  <rect width="1254" height="1254" fill="#e2ae80"></rect>
  <path d="M 757 322 L 753 322 L 749 320 L 739 319 L 738 318 L 734 318 L 733 317 L 727 317 L 726 316 L 720 316 L 719 315 L 711 315 L 710 314 L 697 314 L 696 313 L 695 314 L 694 313 L 674 313 L 673 314 L 658 314 L 657 315 L 649 315 L 648 316 L 642 316 L 641 317 L 631 318 L 630 319 L 627 319 L 626 320 L 621 320 L 617 322 L 613 322 L 609 324 L 606 324 L 605 325 L 603 325 L 602 326 L 600 326 L 599 327 L 597 327 L 596 328 L 588 330 L 583 333 L 581 333 L 578 335 L 576 335 L 569 339 L 567 339 L 563 341 L 561 343 L 550 348 L 548 350 L 540 354 L 538 356 L 531 360 L 528 363 L 524 365 L 511 376 L 510 376 L 484 401 L 484 402 L 477 409 L 477 410 L 466 423 L 466 424 L 461 430 L 461 431 L 455 439 L 454 442 L 450 447 L 435 477 L 435 479 L 431 487 L 431 489 L 429 493 L 429 496 L 428 497 L 428 499 L 426 503 L 426 506 L 425 507 L 425 510 L 424 511 L 424 515 L 423 516 L 423 519 L 422 520 L 422 525 L 421 526 L 421 530 L 420 531 L 420 536 L 419 537 L 419 546 L 418 547 L 418 594 L 419 595 L 419 603 L 420 604 L 420 610 L 421 611 L 422 622 L 423 623 L 424 631 L 426 635 L 427 642 L 428 643 L 429 648 L 431 651 L 431 653 L 433 656 L 433 658 L 436 663 L 436 665 L 441 675 L 443 677 L 445 682 L 447 684 L 451 692 L 455 697 L 456 700 L 459 703 L 459 704 L 467 714 L 467 715 L 475 724 L 475 725 L 491 742 L 492 742 L 500 750 L 501 750 L 506 755 L 507 755 L 514 761 L 515 761 L 523 767 L 526 768 L 528 770 L 535 773 L 537 775 L 543 778 L 545 778 L 550 781 L 552 781 L 555 783 L 557 783 L 558 784 L 560 784 L 566 787 L 569 787 L 573 789 L 576 789 L 577 790 L 580 790 L 581 791 L 585 791 L 586 792 L 590 792 L 591 793 L 596 793 L 597 794 L 604 794 L 605 795 L 629 795 L 630 796 L 631 795 L 641 795 L 642 794 L 650 794 L 651 793 L 656 793 L 657 792 L 666 791 L 667 790 L 674 789 L 675 788 L 677 788 L 678 787 L 680 787 L 681 786 L 689 784 L 705 776 L 707 776 L 711 773 L 716 771 L 721 767 L 727 764 L 730 761 L 731 761 L 734 758 L 735 758 L 739 754 L 740 754 L 759 735 L 759 734 L 763 730 L 763 729 L 769 722 L 772 716 L 774 714 L 775 711 L 777 709 L 785 693 L 785 691 L 787 688 L 787 686 L 789 682 L 789 679 L 791 675 L 791 672 L 792 671 L 792 668 L 793 667 L 793 663 L 794 662 L 794 657 L 795 656 L 795 647 L 796 646 L 796 629 L 795 628 L 795 619 L 794 618 L 793 608 L 792 607 L 792 604 L 791 603 L 791 600 L 790 599 L 790 596 L 789 595 L 788 590 L 786 587 L 786 585 L 783 580 L 783 578 L 781 574 L 779 572 L 777 567 L 775 565 L 771 558 L 764 550 L 764 549 L 749 534 L 748 534 L 741 528 L 740 528 L 732 522 L 727 520 L 725 518 L 723 518 L 716 514 L 714 514 L 713 513 L 711 513 L 710 512 L 708 512 L 704 510 L 697 509 L 696 508 L 691 508 L 690 507 L 681 507 L 680 506 L 670 506 L 669 507 L 661 507 L 660 508 L 656 508 L 655 509 L 652 509 L 651 510 L 648 510 L 647 511 L 642 512 L 630 518 L 628 520 L 621 524 L 609 536 L 609 537 L 604 543 L 603 546 L 601 548 L 598 554 L 598 556 L 596 559 L 595 565 L 594 566 L 594 571 L 593 572 L 593 588 L 594 589 L 594 593 L 595 594 L 596 599 L 601 609 L 607 616 L 608 616 L 611 619 L 618 623 L 620 623 L 624 625 L 640 625 L 641 624 L 644 624 L 655 618 L 661 612 L 663 608 L 667 604 L 671 602 L 678 602 L 684 605 L 691 613 L 694 619 L 694 621 L 695 622 L 696 635 L 695 636 L 695 641 L 694 642 L 694 645 L 693 646 L 692 651 L 689 657 L 687 659 L 686 662 L 683 665 L 683 666 L 671 677 L 670 677 L 668 679 L 665 680 L 663 682 L 659 684 L 657 684 L 651 687 L 644 688 L 643 689 L 639 689 L 638 690 L 614 690 L 613 689 L 609 689 L 608 688 L 600 687 L 594 684 L 592 684 L 578 677 L 576 675 L 572 673 L 564 666 L 563 666 L 554 657 L 554 656 L 546 647 L 546 646 L 542 641 L 541 638 L 539 636 L 535 628 L 535 626 L 532 621 L 532 619 L 531 618 L 531 616 L 530 615 L 530 613 L 528 609 L 528 606 L 527 605 L 527 602 L 526 601 L 526 597 L 525 596 L 525 590 L 524 589 L 524 560 L 525 559 L 525 554 L 526 553 L 527 544 L 529 540 L 529 537 L 530 536 L 531 531 L 533 528 L 533 526 L 535 523 L 535 521 L 541 509 L 543 507 L 544 504 L 546 502 L 550 495 L 557 487 L 557 486 L 574 469 L 575 469 L 583 462 L 584 462 L 592 456 L 595 455 L 597 453 L 609 447 L 611 447 L 614 445 L 616 445 L 621 442 L 624 442 L 628 440 L 631 440 L 632 439 L 634 439 L 638 437 L 642 437 L 643 436 L 647 436 L 648 435 L 653 435 L 654 434 L 661 434 L 662 433 L 698 433 L 699 434 L 706 434 L 707 435 L 711 435 L 712 436 L 717 436 L 718 437 L 721 437 L 722 438 L 725 438 L 729 440 L 732 440 L 733 441 L 738 442 L 741 444 L 743 444 L 746 446 L 748 446 L 764 454 L 766 456 L 771 458 L 773 460 L 780 464 L 783 467 L 784 467 L 793 475 L 794 475 L 816 497 L 816 498 L 821 503 L 821 504 L 827 511 L 827 512 L 831 517 L 832 520 L 836 525 L 838 530 L 840 532 L 846 544 L 846 546 L 849 551 L 849 553 L 851 556 L 852 561 L 854 564 L 854 567 L 855 568 L 855 570 L 856 571 L 856 573 L 858 577 L 858 581 L 859 582 L 859 585 L 860 586 L 861 596 L 862 597 L 862 602 L 863 603 L 863 610 L 864 611 L 864 625 L 865 626 L 865 646 L 864 647 L 864 659 L 863 660 L 863 667 L 862 668 L 862 673 L 861 674 L 861 678 L 860 679 L 860 683 L 859 684 L 859 687 L 858 688 L 858 691 L 857 692 L 856 699 L 855 700 L 855 702 L 854 703 L 852 711 L 850 714 L 849 719 L 846 724 L 846 726 L 836 746 L 834 748 L 833 751 L 831 753 L 830 756 L 828 758 L 826 762 L 823 765 L 823 766 L 820 769 L 820 770 L 817 773 L 817 774 L 812 779 L 812 780 L 789 803 L 788 803 L 783 808 L 782 808 L 779 811 L 778 811 L 775 814 L 774 814 L 771 817 L 770 817 L 765 821 L 762 822 L 760 824 L 752 828 L 750 830 L 736 837 L 734 837 L 727 841 L 725 841 L 722 843 L 717 844 L 714 846 L 712 846 L 711 847 L 709 847 L 708 848 L 706 848 L 705 849 L 703 849 L 699 851 L 696 851 L 695 852 L 692 852 L 688 854 L 685 854 L 684 855 L 680 855 L 679 856 L 675 856 L 674 857 L 670 857 L 669 858 L 664 858 L 663 859 L 657 859 L 656 860 L 646 860 L 645 861 L 606 861 L 605 860 L 596 860 L 595 859 L 582 858 L 581 857 L 572 856 L 571 855 L 568 855 L 567 854 L 563 854 L 559 852 L 556 852 L 552 850 L 549 850 L 548 849 L 540 847 L 537 845 L 532 844 L 501 829 L 499 827 L 491 823 L 489 821 L 482 817 L 479 814 L 475 812 L 472 809 L 471 809 L 461 800 L 460 800 L 453 793 L 452 793 L 433 774 L 433 773 L 425 765 L 425 764 L 416 754 L 416 753 L 404 738 L 404 737 L 390 717 L 389 714 L 387 712 L 386 709 L 384 707 L 381 700 L 379 698 L 377 694 L 377 692 L 372 682 L 372 680 L 371 679 L 371 677 L 370 676 L 370 674 L 368 670 L 368 667 L 366 663 L 366 659 L 365 658 L 365 654 L 364 653 L 364 648 L 363 647 L 362 635 L 361 634 L 359 626 L 356 622 L 355 619 L 349 612 L 348 612 L 341 606 L 337 605 L 331 602 L 328 602 L 327 601 L 322 601 L 321 600 L 314 600 L 313 601 L 308 601 L 307 602 L 302 603 L 299 605 L 297 605 L 295 607 L 292 608 L 282 618 L 276 629 L 276 631 L 274 635 L 274 638 L 273 639 L 273 643 L 272 644 L 272 672 L 273 673 L 273 681 L 274 682 L 275 693 L 276 694 L 276 698 L 277 699 L 277 702 L 278 703 L 279 710 L 281 714 L 281 717 L 282 718 L 282 720 L 283 721 L 283 723 L 284 724 L 286 732 L 288 735 L 288 737 L 290 740 L 290 742 L 292 745 L 292 747 L 299 760 L 299 762 L 303 770 L 305 772 L 308 779 L 310 781 L 312 786 L 314 788 L 318 796 L 320 798 L 320 799 L 322 801 L 322 802 L 324 804 L 328 811 L 331 814 L 333 818 L 336 821 L 336 822 L 339 825 L 339 826 L 343 830 L 343 831 L 348 836 L 348 837 L 353 842 L 353 843 L 361 851 L 361 852 L 387 878 L 388 878 L 403 892 L 404 892 L 408 896 L 409 896 L 413 900 L 414 900 L 425 909 L 426 909 L 446 923 L 449 924 L 451 926 L 459 930 L 461 932 L 472 937 L 474 939 L 478 941 L 480 941 L 493 948 L 495 948 L 498 950 L 500 950 L 505 953 L 510 954 L 513 956 L 515 956 L 516 957 L 518 957 L 519 958 L 521 958 L 522 959 L 524 959 L 528 961 L 531 961 L 532 962 L 534 962 L 538 964 L 541 964 L 545 966 L 548 966 L 549 967 L 552 967 L 553 968 L 557 968 L 558 969 L 561 969 L 562 970 L 572 971 L 573 972 L 578 972 L 579 973 L 584 973 L 585 974 L 593 974 L 594 975 L 603 975 L 604 976 L 605 975 L 606 976 L 624 976 L 625 977 L 638 977 L 639 976 L 658 976 L 659 975 L 668 975 L 669 974 L 676 974 L 677 973 L 689 972 L 690 971 L 694 971 L 695 970 L 699 970 L 700 969 L 709 968 L 710 967 L 717 966 L 721 964 L 728 963 L 729 962 L 731 962 L 732 961 L 734 961 L 738 959 L 741 959 L 744 957 L 746 957 L 747 956 L 752 955 L 755 953 L 757 953 L 760 951 L 762 951 L 776 944 L 778 944 L 792 937 L 794 935 L 803 931 L 805 929 L 808 928 L 813 924 L 816 923 L 818 921 L 819 921 L 821 919 L 822 919 L 824 917 L 831 913 L 834 910 L 835 910 L 838 907 L 839 907 L 842 904 L 843 904 L 846 901 L 847 901 L 852 896 L 853 896 L 880 871 L 880 870 L 891 859 L 891 858 L 898 851 L 898 850 L 906 841 L 906 840 L 915 829 L 915 828 L 929 808 L 931 803 L 936 796 L 941 785 L 943 783 L 947 775 L 947 773 L 952 764 L 952 762 L 955 757 L 955 755 L 959 747 L 959 745 L 962 739 L 962 737 L 963 736 L 963 734 L 964 733 L 964 731 L 966 727 L 966 724 L 967 723 L 967 721 L 969 717 L 969 714 L 970 713 L 970 710 L 971 709 L 971 706 L 972 705 L 972 702 L 973 701 L 973 698 L 974 697 L 975 688 L 976 687 L 976 682 L 977 681 L 977 677 L 978 676 L 978 671 L 979 670 L 980 650 L 981 649 L 980 648 L 981 646 L 981 607 L 980 606 L 980 594 L 979 593 L 978 578 L 977 577 L 977 572 L 976 571 L 976 566 L 975 565 L 975 561 L 974 560 L 974 556 L 973 555 L 972 547 L 970 543 L 970 540 L 969 539 L 968 532 L 967 531 L 967 529 L 966 528 L 966 526 L 965 525 L 965 523 L 964 522 L 964 520 L 963 519 L 963 517 L 962 516 L 960 508 L 958 505 L 958 503 L 956 500 L 956 498 L 954 495 L 954 493 L 949 484 L 949 482 L 942 468 L 940 466 L 938 461 L 936 459 L 932 451 L 930 449 L 930 448 L 928 446 L 924 439 L 921 436 L 919 432 L 916 429 L 916 428 L 912 424 L 912 423 L 908 419 L 908 418 L 902 412 L 902 411 L 876 385 L 875 385 L 869 379 L 868 379 L 864 375 L 863 375 L 852 366 L 851 366 L 840 358 L 837 357 L 835 355 L 827 351 L 825 349 L 803 338 L 801 338 L 798 336 L 796 336 L 791 333 L 786 332 L 783 330 L 781 330 L 780 329 L 778 329 L 777 328 L 775 328 L 771 326 L 768 326 L 764 324 L 761 324 Z" fill="#2f2920"></path>
</svg>